<?xml version="1.0" encoding="UTF-8"?>
<svg width="4324px" height="703px" viewBox="0 0 4324 703" version="1.1" xmlns="http://www.w3.org/2000/svg" xmlns:xlink="http://www.w3.org/1999/xlink">
    <!-- Generator: Sketch 47 (45396) - http://www.bohemiancoding.com/sketch -->
    <title>kiiko-goblin-pink-name</title>
    <desc>Created with Sketch.</desc>
    <defs></defs>
    <g id="Page-1" stroke="none" stroke-width="1" fill="none" fill-rule="evenodd">
        <g id="kiiko-goblin-pink-name" fill="#FFD1D1">
            <path d="M0,176 L0,48 L95.2,48 L95.2,0.8 L223.2,0.8 L223.2,46.4 L238.4,46.4 L238.4,0.8 L367.2,0.8 L367.2,48 L414.4,48 L414.4,224 L367.2,224 L367.2,272 L319.2,272 L319.2,320 L272,320 L272,335.2 L319.2,335.2 L319.2,431.2 L367.2,431.2 L367.2,527.2 L414.4,527.2 L414.4,702.4 L286.4,702.4 L286.4,656 L271.2,656 L271.2,702.4 L47.2,702.4 L47.2,176 L0,176 Z M83.2,665.6 L233.6,665.6 L233.6,611.2 L188,611.2 L188,428 L227.2,428 L227.2,523.2 L275.2,523.2 L275.2,619.2 L323.2,619.2 L323.2,665.6 L377.6,665.6 L377.6,563.2 L330.4,563.2 L330.4,467.2 L282.4,467.2 L282.4,372 L236,372 L236,283.2 L282.4,283.2 L282.4,235.2 L330.4,235.2 L330.4,188 L377.6,188 L377.6,84 L330.4,84 L330.4,36.8 L275.2,36.8 L275.2,84 L228,84 L228,140 L322.4,140 L322.4,180 L275.2,180 L275.2,228 L227.2,228 L227.2,275.2 L187.2,275.2 L187.2,36.8 L131.2,36.8 L131.2,84 L36.8,84 L36.8,140 L83.2,140 L83.2,665.6 Z M224,573.6 L237.6,573.6 L237.6,560.8 L224,560.8 L224,573.6 Z M224,190.4 L237.6,190.4 L237.6,176.8 L224,176.8 L224,190.4 Z M480.4,176.8 L480.4,48.8 L574.8,48.8 L574.8,1.6 L702.8,1.6 L702.8,655.2 L655.6,655.2 L655.6,702.4 L527.6,702.4 L527.6,176.8 L480.4,176.8 Z M563.6,666.4 L619.6,666.4 L619.6,619.2 L666,619.2 L666,38.4 L611.6,38.4 L611.6,84.8 L516.4,84.8 L516.4,140.8 L563.6,140.8 L563.6,666.4 Z M768.8,176.8 L768.8,48.8 L863.2,48.8 L863.2,1.6 L991.2,1.6 L991.2,655.2 L944,655.2 L944,702.4 L816,702.4 L816,176.8 L768.8,176.8 Z M852,666.4 L908,666.4 L908,619.2 L954.4,619.2 L954.4,38.4 L900,38.4 L900,84.8 L804.8,84.8 L804.8,140.8 L852,140.8 L852,666.4 Z M1057.2,176 L1057.2,48 L1152.4,48 L1152.4,0.8 L1280.4,0.8 L1280.4,46.4 L1295.6,46.4 L1295.6,0.8 L1424.4,0.8 L1424.4,48 L1471.6,48 L1471.6,224 L1424.4,224 L1424.4,272 L1376.4,272 L1376.4,320 L1329.2,320 L1329.2,335.2 L1376.4,335.2 L1376.4,431.2 L1424.4,431.2 L1424.4,527.2 L1471.6,527.2 L1471.6,702.4 L1343.6,702.4 L1343.6,656 L1328.4,656 L1328.4,702.4 L1104.4,702.4 L1104.4,176 L1057.2,176 Z M1140.4,665.6 L1290.8,665.6 L1290.8,611.2 L1245.2,611.2 L1245.2,428 L1284.4,428 L1284.4,523.2 L1332.4,523.2 L1332.4,619.2 L1380.4,619.2 L1380.4,665.6 L1434.8,665.6 L1434.8,563.2 L1387.6,563.2 L1387.6,467.2 L1339.6,467.2 L1339.6,372 L1293.2,372 L1293.2,283.2 L1339.6,283.2 L1339.6,235.2 L1387.6,235.2 L1387.6,188 L1434.8,188 L1434.8,84 L1387.6,84 L1387.6,36.8 L1332.4,36.8 L1332.4,84 L1285.2,84 L1285.2,140 L1379.6,140 L1379.6,180 L1332.4,180 L1332.4,228 L1284.4,228 L1284.4,275.2 L1244.4,275.2 L1244.4,36.8 L1188.4,36.8 L1188.4,84 L1094,84 L1094,140 L1140.4,140 L1140.4,665.6 Z M1281.2,573.6 L1294.8,573.6 L1294.8,560.8 L1281.2,560.8 L1281.2,573.6 Z M1281.2,190.4 L1294.8,190.4 L1294.8,176.8 L1281.2,176.8 L1281.2,190.4 Z M1584.8,655.2 L1584.8,559.2 L1537.6,559.2 L1537.6,191.2 L1584.8,191.2 L1584.8,48 L1632.8,48 L1632.8,0.8 L1856.8,0.8 L1856.8,48 L1904.8,48 L1904.8,143.2 L1952,143.2 L1952,607.2 L1904.8,607.2 L1904.8,655.2 L1808.8,655.2 L1808.8,702.4 L1632.8,702.4 L1632.8,655.2 L1584.8,655.2 Z M1668.8,665.6 L1772.8,665.6 L1772.8,619.2 L1868,619.2 L1868,571.2 L1915.2,571.2 L1915.2,180 L1868,180 L1868,84 L1820,84 L1820,36.8 L1668.8,36.8 L1668.8,84 L1621.6,84 L1621.6,140 L1764.8,140 L1764.8,188 L1812,188 L1812,562.4 L1724.8,562.4 L1724.8,515.2 L1676.8,515.2 L1676.8,180.8 L1620.8,180.8 L1620.8,228 L1574.4,228 L1574.4,523.2 L1620.8,523.2 L1620.8,619.2 L1668.8,619.2 L1668.8,665.6 Z M1760.8,526.4 L1775.2,526.4 L1775.2,224 L1728,224 L1728,176.8 L1713.6,176.8 L1713.6,479.2 L1760.8,479.2 L1760.8,526.4 Z M2515.2,655.2 L2515.2,176 L2468,176 L2468,48 L2515.2,48 L2515.2,0.8 L2787.2,0.8 L2787.2,48 L2835.2,48 L2835.2,143.2 L2882.4,143.2 L2882.4,607.2 L2835.2,607.2 L2835.2,655.2 L2787.2,655.2 L2787.2,702.4 L2563.2,702.4 L2563.2,655.2 L2515.2,655.2 Z M2599.2,665.6 L2750.4,665.6 L2750.4,619.2 L2798.4,619.2 L2798.4,571.2 L2845.6,571.2 L2845.6,372 L2800,372 L2800,331.2 L2845.6,331.2 L2845.6,180 L2798.4,180 L2798.4,84 L2750.4,84 L2750.4,36.8 L2551.2,36.8 L2551.2,84 L2504.8,84 L2504.8,140 L2551.2,140 L2551.2,619.2 L2599.2,619.2 L2599.2,665.6 Z M2695.2,140.8 L2695.2,188 L2742.4,188 L2742.4,324 L2696,324 L2696,379.2 L2742.4,379.2 L2742.4,562.4 L2656,562.4 L2656,140.8 L2695.2,140.8 Z M2692,526.4 L2705.6,526.4 L2705.6,416.8 L2692,416.8 L2692,526.4 Z M2692,286.4 L2705.6,286.4 L2705.6,224.8 L2692,224.8 L2692,286.4 Z M2948.4,176 L2948.4,48 L3043.6,48 L3043.6,0.8 L3171.6,0.8 L3171.6,527.2 L3362.8,527.2 L3362.8,655.2 L3315.6,655.2 L3315.6,702.4 L2995.6,702.4 L2995.6,176 L2948.4,176 Z M3031.6,665.6 L3278.8,665.6 L3278.8,619.2 L3326,619.2 L3326,563.2 L3135.6,563.2 L3135.6,36.8 L3079.6,36.8 L3079.6,84 L2985.2,84 L2985.2,140 L3031.6,140 L3031.6,665.6 Z M3476,287.2 L3476,143.2 L3524,143.2 L3524,48 L3572,48 L3572,0.8 L3700,0.8 L3700,48 L3748,48 L3748,143.2 L3796,143.2 L3796,287.2 L3843.2,287.2 L3843.2,655.2 L3796,655.2 L3796,702.4 L3667.2,702.4 L3667.2,560.8 L3604,560.8 L3604,655.2 L3556,655.2 L3556,702.4 L3428.8,702.4 L3428.8,287.2 L3476,287.2 Z M3465.6,665.6 L3520,665.6 L3520,619.2 L3568,619.2 L3568,524 L3704,524 L3704,665.6 L3759.2,665.6 L3759.2,619.2 L3806.4,619.2 L3806.4,324 L3759.2,324 L3759.2,180 L3711.2,180 L3711.2,84 L3664,84 L3664,36.8 L3608,36.8 L3608,84 L3560,84 L3560,180 L3512,180 L3512,324 L3465.6,324 L3465.6,665.6 Z M3616,331.2 L3616,188.8 L3656,188.8 L3656,331.2 L3703.2,331.2 L3703.2,418.4 L3568.8,418.4 L3568.8,331.2 L3616,331.2 Z M3604.8,382.4 L3666.4,382.4 L3666.4,368.8 L3604.8,368.8 L3604.8,382.4 Z M3909.2,176 L3909.2,48 L4004.4,48 L4004.4,0.8 L4132.4,0.8 L4132.4,46.4 L4147.6,46.4 L4147.6,0.8 L4276.4,0.8 L4276.4,48 L4323.6,48 L4323.6,224 L4276.4,224 L4276.4,272 L4228.4,272 L4228.4,320 L4181.2,320 L4181.2,335.2 L4228.4,335.2 L4228.4,431.2 L4276.4,431.2 L4276.4,527.2 L4323.6,527.2 L4323.6,702.4 L4195.6,702.4 L4195.6,656 L4180.4,656 L4180.4,702.4 L3956.4,702.4 L3956.4,176 L3909.2,176 Z M3992.4,665.6 L4142.8,665.6 L4142.8,611.2 L4097.2,611.2 L4097.2,428 L4136.4,428 L4136.4,523.2 L4184.4,523.2 L4184.4,619.2 L4232.4,619.2 L4232.4,665.6 L4286.8,665.6 L4286.8,563.2 L4239.6,563.2 L4239.6,467.2 L4191.6,467.2 L4191.6,372 L4145.2,372 L4145.2,283.2 L4191.6,283.2 L4191.6,235.2 L4239.6,235.2 L4239.6,188 L4286.8,188 L4286.8,84 L4239.6,84 L4239.6,36.8 L4184.4,36.8 L4184.4,84 L4137.2,84 L4137.2,140 L4231.6,140 L4231.6,180 L4184.4,180 L4184.4,228 L4136.4,228 L4136.4,275.2 L4096.4,275.2 L4096.4,36.8 L4040.4,36.8 L4040.4,84 L3946,84 L3946,140 L3992.4,140 L3992.4,665.6 Z M4133.2,573.6 L4146.8,573.6 L4146.8,560.8 L4133.2,560.8 L4133.2,573.6 Z M4133.2,190.4 L4146.8,190.4 L4146.8,176.8 L4133.2,176.8 L4133.2,190.4 Z" id="KIIKO-BLAK"></path>
        </g>
    </g>
</svg>