<?xml version="1.0" encoding="UTF-8"?>
<svg width="244px" height="244px" viewBox="0 0 244 244" version="1.1" xmlns="http://www.w3.org/2000/svg" xmlns:xlink="http://www.w3.org/1999/xlink">
    <!-- Generator: Sketch 46.2 (44496) - http://www.bohemiancoding.com/sketch -->
    <title>Avatar_green Copy</title>
    <desc>Created with Sketch.</desc>
    <defs>
        <filter x="-10.2%" y="-9.6%" width="120.4%" height="119.7%" filterUnits="objectBoundingBox" id="filter-1">
            <feOffset dx="0" dy="1" in="SourceAlpha" result="shadowOffsetOuter1"></feOffset>
            <feGaussianBlur stdDeviation="6" in="shadowOffsetOuter1" result="shadowBlurOuter1"></feGaussianBlur>
            <feColorMatrix values="0 0 0 0 0   0 0 0 0 0   0 0 0 0 0  0 0 0 0.5 0" type="matrix" in="shadowBlurOuter1" result="shadowMatrixOuter1"></feColorMatrix>
            <feMerge>
                <feMergeNode in="shadowMatrixOuter1"></feMergeNode>
                <feMergeNode in="SourceGraphic"></feMergeNode>
            </feMerge>
        </filter>
    </defs>
    <g id="Page-1" stroke="none" stroke-width="1" fill="none" fill-rule="evenodd">
        <g id="Avatar_green-Copy">
            <g id="Group" filter="url(#filter-1)" transform="translate(31.000000, 27.000000)">
                <g id="Group-Copy-2" transform="translate(0.898026, 13.495957)">
                    <path d="M22.1537297,77.3865374 L22.1537297,66.0026448 C22.1537297,29.5503906 51.7091404,0 88.154641,0 L92.6528184,0 C129.104115,0 158.65373,29.5451013 158.65373,66.0026448 L158.65373,77.3865374 L159.506346,77.3865374 C170.608004,77.3865374 179.607677,86.3816083 179.607677,97.4830413 C179.607677,108.582034 170.610763,117.579545 159.506346,117.579545 L158.264077,117.579545 C154.670436,150.638623 126.661364,176.369318 92.6528184,176.369318 L88.154641,176.369318 C54.1403695,176.369318 26.1357779,150.642749 22.5432096,117.579545 L20.1037454,117.579545 C9.00208657,117.579545 0.00241389226,108.584474 0.00241389226,97.4830413 C0.00241389226,86.3840486 8.99932796,77.3865374 20.1037454,77.3865374 L22.1537297,77.3865374 Z" id="Rectangle-1204" fill="#FEE7AD"></path>
                    <path d="M72.4407895,131.377145 C72.4407895,131.377145 77.8337753,139.175788 91.002414,139.175788 C104.171053,139.175788 109.564038,131.377145 109.564038,131.377145" id="Path-182" stroke="#B07373" stroke-width="3.6" stroke-linecap="round"></path>
                    <ellipse id="Oval-248" fill="#0A1636" cx="125.723684" cy="87.5847632" rx="4.19078947" ry="4.19926947"></ellipse>
                    <ellipse id="Oval-248-Copy" fill="#0A1636" cx="56.875" cy="87.5847632" rx="4.19078947" ry="4.19926947"></ellipse>
                </g>
                <path d="M137.098684,20.3947571 C143.050279,20.3947571 147.875,25.2292408 147.875,31.1928786 C147.875,32.018765 147.782468,32.8229958 147.607226,33.5957296 C147.696221,33.5935548 147.785483,33.5924611 147.875,33.5924611 C153.826595,33.5924611 158.651316,38.4269448 158.651316,44.3905826 C158.651316,46.3573911 158.12654,48.2013835 157.209637,49.7896434 C157.746274,50.719207 158.148591,51.7363701 158.389994,52.8144854 C158.674515,52.7976555 158.961263,52.7891216 159.25,52.7891216 C167.18546,52.7891216 173.618421,59.2350998 173.618421,67.1866169 C173.618421,75.138134 167.18546,81.5841122 159.25,81.5841122 C151.31454,81.5841122 144.881579,75.138134 144.881579,67.1866169 C144.881579,66.64684 144.911223,66.1140009 144.968969,65.5896451 C140.428993,64.3186965 137.098684,60.143405 137.098684,55.1887041 C137.098684,53.2218957 137.62346,51.3779033 138.540363,49.7896434 C137.62346,48.2013835 137.098684,46.3573911 137.098684,44.3905826 C137.098684,43.5646962 137.191216,42.7604654 137.366458,41.9877316 C137.277463,41.9899064 137.188201,41.9910001 137.098684,41.9910001 C136.590809,41.9910001 136.091139,41.9557956 135.601974,41.8876892 C135.112808,41.9557956 134.613138,41.9910001 134.105263,41.9910001 C130.079909,41.9910001 126.570041,39.7794769 124.719751,36.5028378 C124.26444,36.5616256 123.800227,36.5919393 123.328947,36.5919393 C121.875569,36.5919393 120.48939,36.3036419 119.22426,35.7810058 C107.678801,54.9600301 86.6596404,67.7865125 62.6445053,67.7865125 L57.4196739,67.7865125 C50.325753,67.7865125 43.4935967,66.6674493 37.0899699,64.5962308 C37.108828,64.8573331 37.1184211,65.121009 37.1184211,65.38693 C37.1184211,71.3505678 32.2937001,76.1850515 26.3421053,76.1850515 C20.3905104,76.1850515 15.5657895,71.3505678 15.5657895,65.38693 C15.5657895,62.1618212 16.9768265,59.2669447 19.2140455,57.2883389 C16.9768265,55.309733 15.5657895,52.4148565 15.5657895,49.1897477 C15.5657895,43.4501547 20.0348051,38.7564683 25.6762956,38.4118998 C24.9529941,36.9611686 24.5460526,35.3244341 24.5460526,33.5924611 C24.5460526,27.6288233 29.3707736,22.7943396 35.3223684,22.7943396 C35.3223684,16.8307018 40.1470893,11.9962182 46.0986842,11.9962182 C48.0615209,11.9962182 49.9017896,12.5220558 51.4868421,13.4408145 C53.0718947,12.5220558 54.9121634,11.9962182 56.875,11.9962182 C57.2440065,11.9962182 57.6086811,12.0148027 57.9681424,12.0510886 C59.7209326,8.46587562 63.3984185,5.99726177 67.6513158,5.99726177 C69.956979,5.99726177 72.0935202,6.72282477 73.8459402,7.9585167 C75.8222326,5.655835 78.7510312,4.19757485 82.0197368,4.19757485 C85.8446092,4.19757485 89.2040642,6.19429527 91.1165808,9.20422883 C91.8855173,3.99634886 96.3651604,-2.30926389e-14 101.776316,-2.30926389e-14 C106.691531,-2.30926389e-14 110.838159,3.29737635 112.133259,7.80497519 C112.27239,7.79964041 112.412197,7.79694868 112.552632,7.79694868 C115.700083,7.79694868 118.532378,9.14902596 120.502593,11.305151 C122.181115,10.2238591 124.178641,9.5966356 126.322368,9.5966356 C132.273963,9.5966356 137.098684,14.4311193 137.098684,20.3947571 Z M92.6794719,16.589589 C92.6693119,16.6584007 92.6585041,16.727001 92.6470549,16.7953833 L92.7354708,16.7953833 C92.761507,16.7953833 92.7875397,16.7953983 92.8135689,16.7954285 C92.7681141,16.7273581 92.7234111,16.6587409 92.6794719,16.589589 Z" id="Path-Copy-8" fill="#3E2917"></path>
                <path d="M145.465101,131.72154 C158.814428,124.156832 152.311317,70.9883211 152.311317,70.9883211 C151.703752,63.6035577 155.016347,57.625292 159.848684,57.625292 L151.098963,57.625292 C153.843423,57.625292 159.848684,63.6323202 159.848684,71.042365 L159.848684,132.612769 C159.835676,132.612769 159.82246,132.612769 159.809038,132.612769 C159.357342,139.852102 153.927623,192.165223 91.3292763,192.165223 C26.5219661,192.165223 22.9891921,135.528553 22.818,131.411511 C22.8152805,131.411511 22.81257,131.411511 22.8098684,131.411511 L22.8098684,71.832309 C22.8098684,64.4271233 28.8151297,58.4240341 31.5595895,58.4240341 L22.8098684,58.4240341 C27.6422059,58.4240341 30.9403081,64.3969056 30.320481,71.7898272 C30.320481,71.7898272 23.2617522,127.824309 39.0593183,131.247978 L145.465101,131.72154 Z M62.050058,150.387372 C62.050058,156.620209 67.1023677,161.670441 73.3347075,161.670441 L109.92754,161.670441 C116.16806,161.670441 121.21219,156.618839 121.21219,150.387372 C121.21219,144.154534 116.15988,139.104302 109.92754,139.104302 L73.3347075,139.104302 C67.0941881,139.104302 62.050058,144.155904 62.050058,150.387372 Z" id="Combined-Shape" fill="#3E2917"></path>
            </g>
        </g>
    </g>
</svg>