<?xml version="1.0" encoding="UTF-8"?>
<svg width="1620px" height="387px" viewBox="0 0 1620 387" version="1.1" xmlns="http://www.w3.org/2000/svg" xmlns:xlink="http://www.w3.org/1999/xlink">
    <!-- Generator: Sketch 46.2 (44496) - http://www.bohemiancoding.com/sketch -->
    <title>Logo_Chain_Operator Copy 2</title>
    <desc>Created with Sketch.</desc>
    <defs></defs>
    <g id="Page-1" stroke="none" stroke-width="1" fill="none" fill-rule="evenodd">
        <g id="Logo_Chain_Operator-Copy-2">
            <path d="M78.7120482,18 C56.6638554,18 38.0331325,25.2391555 22.8198795,39.7174699 C7.60662651,54.1957843 0,72.0915651 0,93.4048193 C0,114.865059 7.5698784,132.797591 22.7096386,147.20241 C37.8493987,161.607228 56.4433735,168.809639 78.4915663,168.809639 C93.1903626,168.809639 106.345782,165.392169 117.957831,158.557229 C129.569881,151.722289 138.683133,142.131325 145.29759,129.784337 L116.414458,110.161446 C107.007228,126.036145 94.3662651,133.973494 78.4915663,133.973494 C66.7325312,133.973494 57.1783121,130.298794 49.8289157,122.949398 C42.4795192,115.600001 38.8048193,105.8253 38.8048193,93.6253012 C38.8048193,81.4253023 42.5162639,71.5771084 49.9391566,64.0807229 C57.3620493,56.5843373 66.879517,52.8361446 78.4915663,52.8361446 C94.3662651,52.8361446 107.007228,60.773494 116.414458,76.6481928 L145.29759,57.0253012 C138.683133,44.6783133 129.569881,35.0873494 117.957831,28.2524096 C106.345782,21.4174699 93.2638554,18 78.7120482,18 Z" id="Path" fill="#FFFFFF"></path>
            <path d="M231.585542,52.4746988 C220.267471,52.4746988 210.713252,55.9289168 202.922892,62.8373494 L202.922892,0 L165,0 L165,165.361446 L202.922892,165.361446 L202.922892,102.96506 C202.922892,98.1144578 204.392772,94.1825312 207.33253,91.1692771 C210.272288,88.156023 214.093977,86.6493976 218.79759,86.6493976 C223.501204,86.6493976 227.359637,88.156023 230.372892,91.1692771 C233.386146,94.1825312 234.892771,98.1144578 234.892771,102.96506 L234.892771,165.361446 L272.815663,165.361446 L272.815663,97.453012 C272.815663,83.9301216 269.030722,73.0530109 261.460843,64.8216867 C253.890965,56.5903626 243.93253,52.4746988 231.585542,52.4746988 Z" id="Path" fill="#FFFFFF"></path>
            <path d="M345.238554,54 C360.672289,54 372.872288,58.1891566 381.838554,66.5674699 C390.80482,74.9457831 395.287952,87.0722892 395.287952,102.946988 L395.287952,166.886747 L360.672289,166.886747 L360.672289,157.846988 C352.440965,165.637348 341.857832,169.53253 328.922892,169.53253 C317.016867,169.53253 307.719878,166.262049 301.031928,159.721084 C294.343977,153.180119 291,145.059036 291,135.357831 C291,125.068674 294.858434,117.021083 302.575301,111.21506 C310.292169,105.409037 320.838553,102.506024 334.214458,102.506024 L357.36506,102.506024 L357.36506,100.742169 C357.36506,96.4795192 356.005421,93.0620493 353.286145,90.489759 C350.566869,87.9174688 346.340964,86.6313253 340.608434,86.6313253 C335.610842,86.6313253 331.090963,87.6969868 327.048795,89.8283133 C323.006628,91.9596397 318.339759,95.3771096 313.048193,100.080723 L295.409639,76.0481928 C309.814457,61.3493965 326.424098,54 345.238554,54 Z M340.608434,142.633735 C345.459036,142.633735 349.464459,141.200602 352.624699,138.334337 C355.784939,135.468072 357.36506,131.536146 357.36506,126.538554 L357.36506,125.656627 L339.506024,125.656627 C332.744577,125.656627 329.363855,128.449399 329.363855,134.03494 C329.363855,139.76747 333.112048,142.633735 340.608434,142.633735 Z" id="Combined-Shape" fill="#FFFFFF"></path>
            <path d="M548.703614,54 C536.209637,54 525.846987,57.8951818 517.615663,65.6855422 L517.615663,56.6457831 L483,56.6457831 L483,166.886747 L520.922892,166.886747 L520.922892,104.490361 C520.922892,99.639759 522.392772,95.7078324 525.33253,92.6945783 C528.272288,89.6813242 532.093977,88.1746988 536.79759,88.1746988 C541.501204,88.1746988 545.359637,89.6813242 548.372892,92.6945783 C551.386146,95.7078324 552.892771,99.639759 552.892771,104.490361 L552.892771,166.886747 L590.815663,166.886747 L590.815663,98.9783133 C590.815663,85.3084337 586.993977,74.3945783 579.350602,66.236747 C571.707228,58.0789157 561.491566,54 548.703614,54 Z" id="Path" fill="#FFFFFF"></path>
            <path d="M747.271084,18 C769.172288,18 787.766266,25.2391555 803.053012,39.7174699 C818.339758,54.1957843 825.983133,72.0915651 825.983133,93.4048193 C825.983133,114.718073 818.339758,132.613854 803.053012,147.092169 C787.766266,161.570483 769.172288,168.809639 747.271084,168.809639 C725.369881,168.809639 706.849399,161.570483 691.709639,147.092169 C676.569878,132.613854 669,114.718073 669,93.4048193 C669,72.0915651 676.569878,54.1957843 691.709639,39.7174699 C706.849399,25.2391555 725.369881,18 747.271084,18 Z M747.491566,52.8361446 C735.732531,52.8361446 726.178312,56.5843373 718.828916,64.0807229 C711.479519,71.5771084 707.804819,81.3518061 707.804819,93.4048193 C707.804819,105.604818 711.479519,115.416264 718.828916,122.839157 C726.178312,130.262049 735.732531,133.973494 747.491566,133.973494 C758.956627,133.973494 768.437349,130.262049 775.933735,122.839157 C783.43012,115.416264 787.178313,105.604818 787.178313,93.4048193 C787.178313,81.3518061 783.43012,71.5771084 775.933735,64.0807229 C768.437349,56.5843373 758.956627,52.8361446 747.491566,52.8361446 Z" id="Combined-Shape" fill="#FFFFFF"></path>
            <path d="M912.144578,54 C927.578313,54 940.256024,59.3650591 950.177711,70.0951807 C960.099398,80.8253023 965.060241,94.6421676 965.060241,111.545783 C965.060241,128.449399 960.099398,142.33976 950.177711,153.216867 C940.256024,164.093975 927.578313,169.53253 912.144578,169.53253 C900.532529,169.53253 891.125302,166.151808 883.922892,159.390361 L883.922892,206.573494 L846,206.573494 L846,56.6457831 L880.615663,56.6457831 L880.615663,68.1108434 C887.524095,58.7036133 898.033735,54 912.144578,54 Z M904.648193,135.137349 C910.527712,135.137349 915.598796,133.079519 919.861446,128.963855 C924.124095,124.848192 926.255422,119.115662 926.255422,111.766265 C926.255422,104.416869 924.160843,98.6843385 919.971687,94.5686747 C915.78253,90.4530109 910.674698,88.3951807 904.648193,88.3951807 C898.768674,88.3951807 893.734337,90.3795181 889.545181,94.3481928 C885.356024,98.3168675 883.261446,104.049398 883.261446,111.545783 C883.261446,119.042169 885.356024,124.848192 889.545181,128.963855 C893.734337,133.079519 898.768674,135.137349 904.648193,135.137349 Z" id="Combined-Shape" fill="#FFFFFF"></path>
            <path d="M1089.56386,106.254217 C1089.56386,112.868675 1088.75542,119.115662 1087.13855,124.995181 L1016.58434,124.995181 C1020.7,133.373494 1028.93133,137.562651 1041.27831,137.562651 C1051.12651,137.562651 1060.75422,134.696386 1070.16145,128.963855 L1083.83133,154.760241 C1070.7494,164.608435 1056.1241,169.53253 1039.95542,169.53253 C1021.8759,169.53253 1007.03012,164.05723 995.418072,153.106627 C983.806023,142.156023 978,128.375902 978,111.766265 C978,95.4506024 983.659037,81.7439748 994.977108,70.6463855 C1006.29518,59.5487963 1020.25904,54 1036.86867,54 C1052.74337,54 1065.49458,59.0710843 1075.12229,69.213253 C1084.75,79.3554217 1089.56386,91.7024096 1089.56386,106.254217 Z M1035.3253,83.7650602 C1030.62169,83.7650602 1026.46928,85.1981928 1022.86807,88.0644578 C1019.26687,90.9307229 1016.73133,95.0096386 1015.26145,100.301205 L1053.6253,100.301205 C1053.47831,95.3036133 1051.64096,91.2981939 1048.11325,88.2849398 C1044.58554,85.2716856 1040.32289,83.7650602 1035.3253,83.7650602 Z" id="Combined-Shape" fill="#FFFFFF"></path>
            <path d="M1172.39639,54 C1160.93133,54 1151.67108,58.4831314 1144.61566,67.4493976 L1144.61566,55.7638554 L1110,55.7638554 L1110,166.004819 L1147.92289,166.004819 L1147.92289,115.73494 C1147.92289,106.474699 1150.12771,99.75 1154.53735,95.5608434 C1158.94699,91.3716867 1165.48795,89.2771084 1174.16024,89.2771084 L1183.2,89.2771084 L1183.2,55.7638554 C1179.96626,54.5879529 1176.36506,54 1172.39639,54 Z" id="Path" fill="#FFFFFF"></path>
            <path d="M1245.23855,54 C1260.67229,54 1272.87229,58.1891566 1281.83855,66.5674699 C1290.80482,74.9457831 1295.28795,87.0722892 1295.28795,102.946988 L1295.28795,166.886747 L1260.67229,166.886747 L1260.67229,157.846988 C1252.44096,165.637348 1241.85783,169.53253 1228.92289,169.53253 C1217.01687,169.53253 1207.71988,166.262049 1201.03193,159.721084 C1194.34398,153.180119 1191,145.059036 1191,135.357831 C1191,125.068674 1194.85843,117.021083 1202.5753,111.21506 C1210.29217,105.409037 1220.83855,102.506024 1234.21446,102.506024 L1257.36506,102.506024 L1257.36506,100.742169 C1257.36506,96.4795192 1256.00542,93.0620493 1253.28614,90.489759 C1250.56687,87.9174688 1246.34096,86.6313253 1240.60843,86.6313253 C1235.61084,86.6313253 1231.09096,87.6969868 1227.0488,89.8283133 C1223.00663,91.9596397 1218.33976,95.3771096 1213.04819,100.080723 L1195.40964,76.0481928 C1209.81446,61.3493965 1226.4241,54 1245.23855,54 Z M1240.60843,142.633735 C1245.45904,142.633735 1249.46446,141.200602 1252.6247,138.334337 C1255.78494,135.468072 1257.36506,131.536146 1257.36506,126.538554 L1257.36506,125.656627 L1239.50602,125.656627 C1232.74458,125.656627 1229.36386,128.449399 1229.36386,134.03494 C1229.36386,139.76747 1233.11205,142.633735 1240.60843,142.633735 Z" id="Combined-Shape" fill="#FFFFFF"></path>
            <path d="M1381.64096,135.390361 C1374.73253,135.390361 1369.84518,134.287952 1366.97892,132.083133 C1364.11265,129.878313 1362.67952,126.13012 1362.67952,120.838554 L1362.67952,88.2072289 L1392.2241,88.2072289 L1392.2241,56.4578313 L1362.67952,56.4578313 L1362.67952,30 L1324.75663,30 L1324.75663,56.4578313 L1308,56.4578313 L1308,88.2072289 L1324.75663,88.2072289 L1324.75663,124.586747 C1324.75663,139.432529 1328.94578,150.603614 1337.3241,158.1 C1345.70241,165.596386 1357.68193,169.344578 1373.26265,169.344578 C1380.75904,169.344578 1388.18193,168.462651 1395.53133,166.698795 L1395.53133,134.949398 C1387.59398,135.243372 1382.96386,135.390361 1381.64096,135.390361 Z" id="Path" fill="#FFFFFF"></path>
            <path d="M1466.97108,54 C1483.58072,54 1497.76506,59.5487963 1509.5241,70.6463855 C1521.28313,81.7439748 1527.16265,95.4506024 1527.16265,111.766265 C1527.16265,128.081928 1521.28313,141.788555 1509.5241,152.886145 C1497.76506,163.983734 1483.58072,169.53253 1466.97108,169.53253 C1450.21446,169.53253 1436.03012,163.983734 1424.41807,152.886145 C1412.80602,141.788555 1407,128.081928 1407,111.766265 C1407,95.4506024 1412.80602,81.7439748 1424.41807,70.6463855 C1436.03012,59.5487963 1450.21446,54 1466.97108,54 Z M1467.19157,88.8361446 C1460.87108,88.8361446 1455.72651,90.967471 1451.75783,95.2301205 C1447.78916,99.49277 1445.80482,105.004818 1445.80482,111.766265 C1445.80482,118.674698 1447.78916,124.223494 1451.75783,128.412651 C1455.72651,132.601807 1460.87108,134.696386 1467.19157,134.696386 C1473.21807,134.696386 1478.25241,132.565059 1482.29458,128.30241 C1486.33675,124.03976 1488.35783,118.527712 1488.35783,111.766265 C1488.35783,105.151807 1486.33675,99.6765071 1482.29458,95.3403614 C1478.25241,91.0042157 1473.21807,88.8361446 1467.19157,88.8361446 Z" id="Combined-Shape" fill="#FFFFFF"></path>
            <path d="M1610.39639,54 C1598.93133,54 1589.67108,58.4831314 1582.61566,67.4493976 L1582.61566,55.7638554 L1548,55.7638554 L1548,166.004819 L1585.92289,166.004819 L1585.92289,115.73494 C1585.92289,106.474699 1588.12771,99.75 1592.53735,95.5608434 C1596.94699,91.3716867 1603.48795,89.2771084 1612.16024,89.2771084 L1621.2,89.2771084 L1621.2,55.7638554 C1617.96626,54.5879529 1614.36506,54 1610.39639,54 Z" id="Path" fill="#FFFFFF"></path>
            <text id="by-John-Omar-Copy" font-family="CeraGR-Bold" font-size="132.289157" font-weight="bold" fill="#222222">
                <tspan x="767" y="360">by John Omar</tspan>
            </text>
            <g id="Group" transform="translate(420.000000, 24.000000)" stroke="#FFFFFF">
                <path d="M19.4096386,167 L19.4096386,141" id="Path" stroke-width="8.81927711"></path>
                <path d="M19.4096386,34 L19.4096386,0" id="Path" stroke-width="8.81927711"></path>
                <polygon id="Path" stroke-width="8" points="37.9228916 33 0 33 0 143.240964 37.9228916 143.240964"></polygon>
            </g>
        </g>
    </g>
</svg>